<?xml version="1.0" encoding="utf-8"?>
<!-- Generator: Adobe Illustrator 28.3.0, SVG Export Plug-In . SVG Version: 6.00 Build 0)  -->
<svg version="1.1" id="Logo_Art" xmlns="http://www.w3.org/2000/svg" xmlns:xlink="http://www.w3.org/1999/xlink" x="0px" y="0px"
	 viewBox="0 0 620.22 364.96" style="enable-background:new 0 0 620.22 364.96;" xml:space="preserve">
<style type="text/css">
	.st0{fill:none;}
	.st1{fill:#009FDA;}
</style>
<rect y="0" class="st0" width="620.22" height="364.96"/>
<g>
	<g>
		<path class="st1" d="M528.98,168.8c3.68-4.16,6.24-9.42,7.59-15.69l-16.66-3.14c-2.63,9.08-9.44,15.1-20.21,15.1
			c-14.24,0-22.11-9.34-22.11-24.33c0-14.97,7.87-24.3,22.11-24.3c10.66,0,17.35,5.23,20.05,14.15l16.57-2.36
			c-4-16.65-16.69-26.79-36.64-26.79c-24.39,0-39.8,15.99-39.8,39.27c0,17.98,9.19,31.6,24.59,36.88
			c-51.74,8.6-99.91,11.26-135.48,11.26c-31.82,0.41-77.53-2.8-120.83-8.96c15.27-0.78,26.31-7.53,31.52-19.96l-17.1-3.35
			c-3.5,5.41-9.32,8.46-17.46,8.46c-12.25,0-20.49-6.95-21.34-18.38h58.86c0.47-4.91,1.95-45.25-37.54-45.25
			c-23.48,0-39.8,16.25-39.8,39.28c0,17.07,8.29,30.22,22.32,36.03c-9.78-1.65-19.29-3.44-28.33-5.39V78.59h-16.96v88.75
			c-2.07-0.53-4.1-1.06-6.09-1.61V170c0,0,81.72,29.69,192.75,29.69c111.05,0,192.77-29.64,192.77-29.64s0-3.62,0-4.32
			C537.49,166.8,533.23,167.82,528.98,168.8z M225.12,116.52c10.66,0,18.99,6.3,20.09,15.77h-40.97
			C206.7,122.52,213.7,116.52,225.12,116.52z M118.34,101.39c-23.49,0-39.8,16.25-39.8,39.28c0,23.3,15.41,39.29,39.8,39.29
			c16.86,0,29.04-6.79,34.59-20.04l-17.1-3.35c-3.5,5.41-9.33,8.46-17.46,8.46c-12.24,0-20.49-6.95-21.34-18.38h58.86
			C156.35,141.73,157.83,101.39,118.34,101.39z M97.48,132.29c2.46-9.77,9.46-15.77,20.88-15.77c10.66,0,18.99,6.3,20.09,15.77
			H97.48z M267.57,140.7c0-23.29,15.41-39.27,39.8-39.27c19.95,0,32.64,10.14,36.63,26.79l-16.56,2.36
			c-2.69-8.91-9.38-14.15-20.05-14.15c-14.24,0-22.11,9.33-22.11,24.3c0,14.99,7.87,24.33,22.11,24.33
			c10.77,0,17.57-6.01,20.21-15.1l16.65,3.14c-3.7,17.24-16.52,26.88-36.89,26.88C282.97,179.99,267.57,163.99,267.57,140.7z
			 M352.3,117.21h-8.79v-14.55h8.79V82.19h17.43v20.46h16.06v14.55h-16.06v40.05c0,6.1,3.58,7.34,7.75,7.34
			c4.08,0.01,8.31-0.44,8.31-0.44v14.58c0,0-7.01,0.57-11.25,0.57c-8.32,0-14.28-2.24-17.95-6.5c-2.78-3.22-4.3-7.62-4.3-13.11
			V117.21z M409.08,178.17H391.8v-75.52h17.37l0.01,8.64c10.35-10.05,22.4-8.66,22.4-8.66v16.02c-13.86,0.15-22.5,4.23-22.5,18.67
			V178.17z M453.94,95.95h-17.37V78.59h17.37V95.95z M453.94,178.17h-17.37v-75.52h17.37V178.17z"/>
		<g>
			<path class="st1" d="M162.32,178.41v107.96h16.95V183.36C171.69,181.4,166.08,179.64,162.32,178.41z"/>
			<path class="st1" d="M541.75,178.42v107.95h-16.38l0.01-5.72c-6.85,5.1-13.85,7.5-20.83,7.5c-10.34,0-19.13-3.47-25.4-10.04
				c-6.22-6.52-9.51-15.65-9.51-26.39c0-10.67,3.44-20.29,9.69-27.12c6.32-6.91,15.28-10.72,25.22-10.72
				c7.24,0,14.19,2.3,20.82,7.26l0.01-38.09C532.17,181.18,537.88,179.66,541.75,178.42z M526.67,250.88
				c0-6.57-2.03-12.16-5.85-16.17c-3.85-4.06-8.25-6.2-14.59-6.2c-12.36,0-20.03,8.58-20.03,22.37c0,13.8,7.67,22.38,20.03,22.38
				c6.34,0,10.74-2.14,14.59-6.19C524.63,263.04,526.67,257.45,526.67,250.88z"/>
			<path class="st1" d="M221.46,214.43c0,0-10.54-0.85-18.81,8.74v-7.68h-16.33v70.88h16.33v-38.14
				c-0.05-12.91,9.79-16.82,18.81-17.61V214.43z"/>
			<path class="st1" d="M257.31,214.06c-21.99,0-36.92,14.84-36.92,36.94c0,21.9,13.98,36.94,36.92,36.94
				c15.86,0,26.77-6.55,32.22-18.95l-15.76-3.05c-3.29,5.09-8.77,7.95-16.43,7.95c-11.51,0-18.81-6.58-19.95-17.29h54.73
				C292.56,251.99,294.45,214.06,257.31,214.06z M237.42,243.34c2.3-9.51,9.18-15.16,19.91-15.16c10.02,0,16.92,5.61,18.57,15.12
				L237.42,243.34z"/>
			<path class="st1" d="M297.51,286.37h16.32v-82.28c-5.45-0.29-10.89-0.73-16.32-1.15V286.37z"/>
			<path class="st1" d="M374.86,215.49v5.65c-6.63-4.96-13.63-7.36-20.88-7.36c-9.94,0-19,3.81-25.32,10.73
				c-6.25,6.82-9.59,16.45-9.59,27.12c0,10.73,3.3,19.87,9.52,26.39c6.27,6.57,15.06,10.04,25.39,10.04c6.99,0,14.02-2.39,20.88-7.5
				v5.82h16.31v-70.88H374.86z M370.24,266.97c-3.85,4.04-8.25,6.19-14.58,6.19c-12.36,0-20.03-8.57-20.03-22.37
				c0-13.79,7.58-22.38,19.94-22.38c6.34,0,10.73,2.14,14.57,6.19c3.83,4.02,5.95,9.62,5.95,16.19
				C376.1,257.35,374.07,262.95,370.24,266.97z"/>
			<path class="st1" d="M457.69,221.08c6.01,5.84,6.51,13.74,6.51,20.68v44.61h-16.38v-42.06c0-9.94-3.91-15.79-13.89-15.79
				c-4.62,0-9.4,1.71-13.12,4.68c-4.06,3.25-6.07,7.6-6.07,12.24v40.94h-16.37v-70.88h16.37v5.78c6.12-5.18,13.34-7.39,21.47-7.39
				C445.54,213.89,452.77,216.3,457.69,221.08z"/>
		</g>
	</g>
</g>
</svg>
