<svg version="1.1" id="Layer_1" xmlns:x="ns_extend;" xmlns:i="ns_ai;" xmlns:graph="ns_graphs;" xmlns="http://www.w3.org/2000/svg" xmlns:xlink="http://www.w3.org/1999/xlink" x="0px" y="0px" viewBox="0 0 94.1 64" style="enable-background:new 0 0 94.1 64;" xml:space="preserve">
 <style type="text/css">
  .st0{fill:url(#SVGID_1_);}
	.st1{fill:#FFFFFF;}
	.st2{fill:url(#SVGID_2_);}
	.st3{fill:url(#SVGID_3_);}
 </style>
 <metadata>
  <sfw xmlns="ns_sfw;">
   <slices>
   </slices>
   <sliceSourceBounds bottomLeftOrigin="true" height="64" width="94.1" x="0" y="-0.3">
   </sliceSourceBounds>
  </sfw>
 </metadata>
 <g>
  <g>
   <g>
    <linearGradient id="SVGID_1_" gradientUnits="userSpaceOnUse" x1="17.4063" y1="-6.6263" x2="73.3815" y2="68.9572" gradientTransform="matrix(1 0 0 -1 2.555680e-10 65.4072)">
     <stop offset="0" style="stop-color:#110252">
     </stop>
     <stop offset="6.761000e-02" style="stop-color:#0A1F66">
     </stop>
     <stop offset="0.1522" style="stop-color:#033D7B">
     </stop>
     <stop offset="0.2" style="stop-color:#004883">
     </stop>
     <stop offset="0.6" style="stop-color:#0067A6">
     </stop>
     <stop offset="1" style="stop-color:#00B3F0">
     </stop>
    </linearGradient>
    <path class="st0" d="M94.1,28.4c0-8.5-1.3-23.2-20.7-26.3c0,0-10.3-2.2-26.2-2.1h-0.3C31-0.1,20.7,2.1,20.7,2.1
				C1.3,5.2,0,19.9,0,28.4v7.2c0,8.5,1.3,23.2,20.7,26.3c0,0,10.3,2.2,26.2,2.1h0.3c15.9,0.1,26.2-2.1,26.2-2.1
				c19.4-3.1,20.7-17.8,20.7-26.3C94.1,34.2,94.1,29.8,94.1,28.4z">
    </path>
    <path class="st1" d="M19.9,34.6l-0.1-0.2c-0.1-0.5-0.3-1.3-0.3-2.7c0-2.2,1.2-2.2,1.6-2.2h14.8l0.1,0.2c0.3,0.7,0.4,1.5,0.4,2.6
				c0,1.6-0.6,2.3-2.2,2.3L19.9,34.6L19.9,34.6L19.9,34.6z M19.9,25.6l-0.1-0.2c-0.1-0.5-0.3-1.3-0.3-2.7c0-2.2,1.2-2.2,1.6-2.2
				h14.8l0.1,0.2c0.3,0.7,0.4,1.5,0.4,2.6c0,1.6-0.6,2.3-2.2,2.3L19.9,25.6L19.9,25.6L19.9,25.6z">
    </path>
    <path class="st1" d="M72.5,31.4l-0.2-0.2l0.1-0.2c0.6-1.1,0.9-2.3,0.9-3.6c0-3.3-2.7-6.9-7.1-6.9l-1.5,0H46.4c0,0-0.2,0-0.2,0
				c-4.4,0.1-7.4,2.8-7.4,6.6c0,1.7,0.6,3.3,1.7,4.5c0.7,0.7,1.5,1.3,2.4,1.8c0.7,0.4,1.4,0.6,2.1,0.9c0.3,0.1,2.1,0.6,2.6,0.8
				c0.2,0.1,0.4,0.1,0.5,0.2c0.6,0.3,1.1,0.9,1.1,1.6c0,0.2,0,0.7-0.4,1c-0.3,0.3-0.8,0.5-1.5,0.6H21.1c-0.4,0-1.6,0-1.6,2.2
				c0,1.4,0.2,2.2,0.3,2.7l0.1,0.2l27.2,0h0.1c4.5,0,7.6-2.7,7.6-6.6c0-1.7-0.6-3.2-1.7-4.5c-0.3-0.3-0.6-0.6-1-0.9
				c-0.5-0.4-0.9-0.7-1.4-1c-0.7-0.4-1.4-0.6-2.1-0.9c-0.3-0.1-2.1-0.6-2.6-0.8c-0.2-0.1-0.4-0.1-0.5-0.2c-0.6-0.3-1.1-0.9-1.1-1.6
				c0-0.2,0-0.7,0.4-1c0.3-0.3,0.8-0.5,1.5-0.6h20.4c1.4,0.2,1.8,1.4,1.8,1.8c0,0.9-0.4,1.9-2.3,2h-7.7c-0.4,0-1.6,0-1.6,2.2
				c0,1.4,0.2,2.2,0.3,2.7l0.1,0.2l10.2,0c1.9,0.1,2.3,1.2,2.3,2c0,0.4-0.4,1.8-2.2,1.8l-9,0c-0.4,0-1.6,0-1.6,2.2
				c0,1.4,0.2,2.2,0.3,2.7l0.1,0.2h10.2c4.4,0,7.1-3.6,7.1-6.9C74.6,34.6,73.8,32.7,72.5,31.4L72.5,31.4z">
    </path>
    <linearGradient id="SVGID_2_" gradientUnits="userSpaceOnUse" x1="49.4373" y1="35.1806" x2="50.5115" y2="41.9606" gradientTransform="matrix(1 0 0 -1 2.555680e-10 65.4072)">
     <stop offset="0" style="stop-color:#0067A6">
     </stop>
     <stop offset="0.92" style="stop-color:#0067A6;stop-opacity:0">
     </stop>
    </linearGradient>
    <path class="st2" d="M42.7,24.7c-0.2,2.5,2,3.7,2.7,4.1c-0.2-0.1-0.4-0.3-0.6-0.4c0,0,0,0,0,0c-0.1-0.1-0.1-0.1-0.2-0.2
				c0-0.1-0.1-0.1-0.1-0.2c0,0,0,0,0-0.1c0,0,0-0.1-0.1-0.2c0,0,0-0.1,0-0.1c0,0,0-0.1,0-0.1c0-0.1,0-0.2,0-0.3c0-0.2,0-0.7,0.4-1
				c0,0,0.1-0.1,0.1-0.1c0,0,0,0,0,0c0,0,0.1-0.1,0.1-0.1c0,0,0,0,0.1,0c0,0,0.1,0,0.1-0.1l0,0c0.3-0.1,0.6-0.2,0.9-0.2H57
				c0.8-0.3,1.2-1.5,1.2-2.6c0-1-0.3-2.3-1.2-2.5l0,0H46.8C44.1,20.9,42.8,22.9,42.7,24.7L42.7,24.7z">
    </path>
    <linearGradient id="SVGID_3_" gradientUnits="userSpaceOnUse" x1="44.1173" y1="31.6105" x2="43.0415" y2="24.831" gradientTransform="matrix(1 0 0 -1 2.555680e-10 65.4072)">
     <stop offset="0" style="stop-color:#0067A6">
     </stop>
     <stop offset="0.92" style="stop-color:#0067A6;stop-opacity:0">
     </stop>
    </linearGradient>
    <path class="st3" d="M50.9,39.3c0.2-2.5-2-3.7-2.7-4.1c0.2,0.1,0.4,0.3,0.6,0.4c0,0,0,0,0,0c0.1,0.1,0.1,0.1,0.1,0.2c0,0,0,0,0,0
				c0,0.1,0.1,0.1,0.1,0.2c0,0,0,0,0,0.1c0,0,0,0.1,0.1,0.2c0,0,0,0.1,0,0.1c0,0,0,0.1,0,0.1c0,0.1,0,0.2,0,0.3c0,0.2,0,0.4-0.1,0.6
				c-0.1,0.2-0.2,0.4-0.4,0.5c0,0,0,0-0.1,0c0,0-0.1,0.1-0.1,0.1c0,0,0,0-0.1,0c0,0-0.1,0-0.1,0.1l0,0c-0.3,0.1-0.6,0.2-0.9,0.2
				H36.6c-0.8,0.3-1.2,1.5-1.2,2.6c0,1,0.3,2.3,1.2,2.5l0,0h10.1C49.5,43.2,50.8,41.1,50.9,39.3z">
    </path>
   </g>
  </g>
 </g>
</svg>