<svg width="235" height="50" viewBox="0 0 235 50" fill="none" xmlns="http://www.w3.org/2000/svg">
<path d="M70.844 27.454H59.323V35.777H74.042C74.288 36.064 74.534 36.638 74.534 37.581C74.534 38.975 74.001 40 72.976 40H56.781C55.797 40 54.813 39.754 54.813 37.909V11.71C55.223 11.464 55.797 11.3 56.904 11.3H74.042C74.288 11.587 74.534 12.161 74.534 13.145C74.534 14.498 74.001 15.523 72.976 15.523H59.323V23.272H71.828C72.074 23.559 72.32 24.338 72.32 25.281C72.32 26.675 71.787 27.454 70.844 27.454ZM79.4578 25.65C79.4578 15.4 84.7058 10.89 91.6348 10.89C98.6868 10.89 103.73 15.4 103.73 25.65C103.73 36.228 98.6048 40.41 91.6758 40.41C84.6648 40.41 79.4578 36.064 79.4578 25.65ZM83.8858 25.773C83.8858 33.645 87.3708 36.597 91.6758 36.597C96.1858 36.597 99.2608 33.686 99.2608 25.773C99.2608 18.147 96.0628 14.867 91.6348 14.867C87.2478 14.867 83.8858 18.188 83.8858 25.773ZM112.801 11.3C113.826 11.3 115.056 11.669 115.056 12.94V35.777H127.684C127.889 36.064 128.176 36.72 128.176 37.581C128.176 38.975 127.643 40 125.757 40H112.514C111.325 40 110.546 39.508 110.546 37.991V11.669C110.997 11.464 111.817 11.3 112.801 11.3ZM132.524 40C131.376 40 130.761 39.795 130.351 39.385L140.437 11.997C141.093 11.628 141.667 11.3 143.102 11.3C144.414 11.3 145.152 11.915 145.521 12.899L155.607 39.016C155.156 39.836 154.172 40 153.352 40C152.122 40 151.179 39.549 150.728 38.155L149.006 33.727H136.788L135.066 38.524C134.697 39.631 134 40 132.524 40ZM142.733 17.491L138.182 29.914H147.53L142.733 17.491ZM169.517 10.89C174.232 10.89 176.487 12.12 177.717 13.309C178.332 13.924 178.578 14.703 178.578 15.4C178.578 16.261 178.086 16.958 177.553 17.532C176.118 16.589 173.576 15.605 169.517 15.605C166.032 15.605 164.392 16.999 164.392 19.049C164.392 21.058 165.745 22.329 170.583 23.6C176.815 25.117 179.644 27.003 179.726 32.087C179.808 36.966 176.651 40.41 169.64 40.41C165.581 40.41 162.793 39.59 161.071 38.442C159.882 37.622 159.431 36.761 159.431 35.777C159.431 34.793 159.759 33.973 160.087 33.522C162.26 34.998 165.868 35.982 169.476 35.982C173.822 35.982 175.257 34.219 175.257 32.333C175.257 30.16 174.027 28.971 169.189 27.823C162.506 26.265 159.923 24.092 159.923 19.008C159.923 14.252 163.121 10.89 169.517 10.89Z" fill="url(#paint0_linear_415_6065)"/>
<path d="M15.488 37.28L15.584 36.064C14.4 38.592 12.768 40.32 10.528 40.32C8.32 40.32 6.048 38.368 6.048 33.92C6.048 27.424 9.664 24.256 12.896 24.256C14.528 24.256 15.616 25.088 16.448 26.4L16.544 25.216C16.576 24.608 16.928 24.256 17.568 24.256C18.272 24.256 18.656 24.416 18.88 24.576L17.824 36.992C17.728 37.824 18.08 38.08 18.624 38.08H19.616C19.712 38.272 19.744 38.464 19.744 38.752C19.744 39.488 19.168 40 17.824 40C16.416 40 15.296 39.104 15.488 37.28ZM11.424 38.048C13.28 38.048 14.816 35.84 15.872 32.8L16.224 28.928C15.456 27.296 14.56 26.464 12.992 26.464C10.976 26.464 8.448 28.8 8.448 33.632C8.448 36.544 9.568 38.08 11.424 38.048ZM29.3595 24.256C32.2715 24.256 33.5195 25.792 33.5195 26.752C33.5195 27.36 33.2955 27.616 32.9755 27.808C32.1755 27.168 30.8955 26.528 29.2955 26.528C27.3115 26.528 26.5115 27.52 26.5115 28.448C26.5115 29.536 27.1835 30.272 29.2635 31.328C31.7595 32.576 32.9115 33.76 32.9115 35.712C32.9115 38.08 31.1835 40.32 27.4075 40.32C24.5915 40.32 22.8635 38.784 22.8635 37.76C22.8635 37.152 22.9915 36.8 23.4715 36.384C24.3035 37.216 25.8395 38.08 27.5035 38.08C29.8715 38.08 30.7035 36.96 30.7035 35.968C30.7035 34.848 29.9355 34.24 27.8555 33.152C25.4875 31.904 24.2395 30.752 24.2395 28.576C24.2395 26.24 26.1915 24.256 29.3595 24.256ZM40.0235 17.6C40.6635 17.6 41.3355 17.856 41.2715 18.592L40.1515 31.168C43.1915 29.856 44.9835 26.912 45.3035 24.8C45.5595 24.672 45.9755 24.544 46.3595 24.544C47.0315 24.544 47.5115 24.8 47.5115 25.504C47.5115 27.552 44.7915 30.784 42.2635 31.84C44.0875 33.088 45.0795 37.632 47.3195 37.632H48.3755C48.4715 37.76 48.5035 38.016 48.5035 38.304C48.5035 39.296 47.8315 40 46.5515 40C43.2875 40 42.2635 34.368 40.0235 32.704L39.4155 39.68C39.1595 39.872 38.6155 40 38.0075 40C37.4315 40 36.8875 39.84 36.9835 38.816L38.8395 17.92C39.0955 17.728 39.4475 17.6 40.0235 17.6Z" fill="#111C2C"/>
<path fill-rule="evenodd" clip-rule="evenodd" d="M192.592 12.5789C192.983 12.2157 193.528 12 194.111 12H215.889C216.472 12 217.017 12.2157 217.408 12.5789C217.797 12.9399 218 13.4128 218 13.8889V23H220V13.8889C220 12.8326 219.547 11.836 218.769 11.1133C217.994 10.3931 216.956 10 215.889 10H194.111C193.044 10 192.006 10.393 191.231 11.1133C190.453 11.836 190 12.8326 190 13.8889V37C190 37.3977 190.236 37.7577 190.6 37.9166C190.965 38.0756 191.389 38.0034 191.68 37.7328L197.615 32.2222H202V30.2222H197.222C196.97 30.2222 196.727 30.3177 196.542 30.4894L192 34.7068V13.8889C192 13.4128 192.203 12.9399 192.592 12.5789Z" fill="url(#paint1_linear_415_6065)"/>
<path fill-rule="evenodd" clip-rule="evenodd" d="M204.618 38.4142C204.222 38.0391 204 37.5304 204 37V27C204 26.4696 204.222 25.9609 204.618 25.5858C205.014 25.2107 205.551 25 206.111 25H220.889C221.449 25 221.986 25.2107 222.382 25.5858C222.778 25.9609 223 26.4696 223 27V43L218.778 39H206.111C205.551 39 205.014 38.7893 204.618 38.4142ZM210 32.5C210 33.3285 209.328 34 208.5 34C207.672 34 207 33.3285 207 32.5C207 31.6716 207.672 31 208.5 31C209.328 31 210 31.6716 210 32.5ZM213.5 34C214.328 34 215 33.3285 215 32.5C215 31.6716 214.328 31 213.5 31C212.672 31 212 31.6716 212 32.5C212 33.3285 212.672 34 213.5 34ZM220 32.5C220 33.3285 219.328 34 218.5 34C217.672 34 217 33.3285 217 32.5C217 31.6716 217.672 31 218.5 31C219.328 31 220 31.6716 220 32.5Z" fill="url(#paint2_linear_415_6065)"/>
<path d="M204.458 24C205.287 24 205.958 23.3284 205.958 22.5C205.958 21.6716 205.287 21 204.458 21C203.63 21 202.958 21.6716 202.958 22.5C202.958 23.3284 203.63 24 204.458 24Z" fill="url(#paint3_linear_415_6065)"/>
<path d="M211.417 24C212.245 24 212.917 23.3284 212.917 22.5C212.917 21.6716 212.245 21 211.417 21C210.588 21 209.917 21.6716 209.917 22.5C209.917 23.3284 210.588 24 211.417 24Z" fill="url(#paint4_linear_415_6065)"/>
<path d="M197.5 24C198.328 24 199 23.3284 199 22.5C199 21.6716 198.328 21 197.5 21C196.672 21 196 21.6716 196 22.5C196 23.3284 196.672 24 197.5 24Z" fill="url(#paint5_linear_415_6065)"/>
<defs>
<linearGradient id="paint0_linear_415_6065" x1="51" y1="50" x2="170.347" y2="-12.3171" gradientUnits="userSpaceOnUse">
<stop stop-color="#0C0936"/>
<stop offset="0.35" stop-color="#0079B5"/>
<stop offset="0.58" stop-color="#00A8DC"/>
<stop offset="0.92" stop-color="#B1CB35"/>
<stop offset="1" stop-color="#FED61C"/>
</linearGradient>
<linearGradient id="paint1_linear_415_6065" x1="190" y1="38" x2="223.797" y2="32.2267" gradientUnits="userSpaceOnUse">
<stop stop-color="#0C0936"/>
<stop offset="0.35" stop-color="#0079B5"/>
<stop offset="0.58" stop-color="#00A8DC"/>
<stop offset="0.92" stop-color="#B1CB35"/>
<stop offset="1" stop-color="#FED61C"/>
</linearGradient>
<linearGradient id="paint2_linear_415_6065" x1="214.795" y1="44.4318" x2="223.312" y2="25.9729" gradientUnits="userSpaceOnUse">
<stop stop-color="#0C0936"/>
<stop offset="0.35" stop-color="#0079B5"/>
<stop offset="0.58" stop-color="#00A8DC"/>
<stop offset="0.92" stop-color="#B1CB35"/>
<stop offset="1" stop-color="#FED61C"/>
</linearGradient>
<linearGradient id="paint3_linear_415_6065" x1="202.958" y1="24" x2="206.35" y2="23.4592" gradientUnits="userSpaceOnUse">
<stop stop-color="#0C0936"/>
<stop offset="0.35" stop-color="#0079B5"/>
<stop offset="0.58" stop-color="#00A8DC"/>
<stop offset="0.92" stop-color="#B1CB35"/>
<stop offset="1" stop-color="#FED61C"/>
</linearGradient>
<linearGradient id="paint4_linear_415_6065" x1="209.917" y1="24" x2="213.309" y2="23.4592" gradientUnits="userSpaceOnUse">
<stop stop-color="#0C0936"/>
<stop offset="0.35" stop-color="#0079B5"/>
<stop offset="0.58" stop-color="#00A8DC"/>
<stop offset="0.92" stop-color="#B1CB35"/>
<stop offset="1" stop-color="#FED61C"/>
</linearGradient>
<linearGradient id="paint5_linear_415_6065" x1="196" y1="24" x2="199.392" y2="23.4592" gradientUnits="userSpaceOnUse">
<stop stop-color="#0C0936"/>
<stop offset="0.35" stop-color="#0079B5"/>
<stop offset="0.58" stop-color="#00A8DC"/>
<stop offset="0.92" stop-color="#B1CB35"/>
<stop offset="1" stop-color="#FED61C"/>
</linearGradient>
</defs>
</svg>
